<?xml version="1.0" encoding="utf-8"?>
<!-- Generator: Adobe Illustrator 16.0.0, SVG Export Plug-In . SVG Version: 6.00 Build 0)  -->
<!DOCTYPE svg PUBLIC "-//W3C//DTD SVG 1.1//EN" "http://www.w3.org/Graphics/SVG/1.1/DTD/svg11.dtd">
<svg version="1.1" id="Layer_1" xmlns="http://www.w3.org/2000/svg" xmlns:xlink="http://www.w3.org/1999/xlink" x="0px" y="0px"
	 width="612px" height="792px" viewBox="0 0 612 792" enable-background="new 0 0 612 792" xml:space="preserve">
<g>
	<g>
		<g>
			<path fill="#FFFFFF" d="M225.522,286.146c-14.076,0-23.868,1.224-29.069,2.448v96.084c6.119,1.836,14.382,2.142,24.785,2.142
				c37.944,0,60.895-18.972,60.895-52.326C281.826,302.976,260.406,286.146,225.522,286.146z"/>
			<path fill="#FFFFFF" d="M0,90.612V702h612V90.612H0z M308.754,396.918c-20.196,20.502-51.714,30.295-87.517,30.295
				c-9.485,0-18.054-0.307-24.785-1.836v107.1h-50.185v-279.99c18.054-3.366,43.146-5.814,77.418-5.814
				c37.026,0,64.26,7.956,82.008,23.257c16.524,13.77,27.234,36.107,27.234,62.729C332.621,359.586,324.36,381.924,308.754,396.918z
				 M399.329,537.066c-24.174,0-46.206-6.426-60.894-14.688l9.792-37.332c11.628,7.038,33.354,14.688,51.408,14.688
				c22.338,0,32.13-9.18,32.13-22.644c0-13.771-8.262-21.114-33.048-29.988c-39.168-13.771-55.692-35.803-55.08-59.67
				c0-36.108,29.069-64.566,75.582-64.566c22.338,0,41.616,5.814,53.244,12.24l-9.792,36.72
				c-8.568-5.202-24.786-11.934-42.229-11.934c-18.054,0-27.846,8.874-27.846,21.42c0,13.158,9.485,19.277,34.884,28.764
				c36.108,13.464,53.244,32.437,53.55,62.73C480.726,509.832,452.268,537.066,399.329,537.066z"/>
		</g>
	</g>
</g>
</svg>
