<?xml version="1.0" encoding="utf-8"?>
<!-- Generator: Adobe Illustrator 16.0.0, SVG Export Plug-In . SVG Version: 6.00 Build 0)  -->
<!DOCTYPE svg PUBLIC "-//W3C//DTD SVG 1.1//EN" "http://www.w3.org/Graphics/SVG/1.1/DTD/svg11.dtd">
<svg version="1.1" id="Layer_1" xmlns="http://www.w3.org/2000/svg" xmlns:xlink="http://www.w3.org/1999/xlink" x="0px" y="0px"
	 width="612px" height="792px" viewBox="0 0 612 792" enable-background="new 0 0 612 792" xml:space="preserve">
<path display="none" fill="#FF7BAC" d="M520.199,671.4H91.8c-33.66,0-61.2-27.54-61.2-61.2V181.8c0-33.659,27.54-61.199,61.2-61.199
	h428.399c33.66,0,61.2,27.54,61.2,61.199v428.4C581.4,643.86,553.86,671.4,520.199,671.4z"/>
<path fill="#FFFFFF" d="M116.28,620.604L33.66,365.4c-7.956-24.48,0.611-51.408,21.42-66.708l215.424-157.284
	c20.808-15.3,49.571-15.3,70.38,0L556.92,299.304c20.808,15.3,29.376,42.228,21.42,66.708l-82.62,254.592
	c-7.956,24.479-30.601,41.004-56.916,41.004h-266.22C146.88,661.608,124.236,645.084,116.28,620.604z"/>
<path display="none" fill="#FFFFFF" d="M577.728,224.028l-229.5,397.188c-18.972,32.436-66.096,32.436-85.067,0L34.272,224.028
	c-18.972-32.437,4.896-73.44,42.229-73.44h458.388C572.831,150.588,596.699,190.98,577.728,224.028z"/>
</svg>
